PathFileType	4	(X/Y/Z)	Patient4_TMGait_0pt3_02_right_01.trc.trc
DataRate	CameraRate	NumFrames	NumMarkers	Units	OrigDataRate	OrigDataStartFrame	OrigNumFrames
50.909090909091	50.909090909091	4	33	mm	50.909090909091	18	       141
Frame#	Time	Sacral			L.Shoulder			Chest			R.Shoulder			Neck			R.ASIS			L.ASIS			R.Thigh.Superior			R.Thigh.Lateral			R.Thigh.Inferior			R.Patella			L.Thigh.Superior			L.Thigh.Lateral			L.Thigh.Inferior			L.Patella			L.Shank.Superior			L.Shank.Lateral			L.Shank.Inferior			R.Shank.Superior			R.Shank.Lateral			R.Shank.Inferior			R.Heel			R.Midfoot.Superior			R.Midfoot.Lateral			R.Toe			L.Heel			L.Midfoot.Lateral			L.Midfoot.Superior			L.Toe			L.Elbow			L.Wrist			R.Elbow			R.Wrist			
		X1	Y1	Z1	X2	Y2	Z2	X3	Y3	Z3	X4	Y4	Z4	X5	Y5	Z5	X6	Y6	Z6	X7	Y7	Z7	X8	Y8	Z8	X9	Y9	Z9	X10	Y10	Z10	X11	Y11	Z11	X12	Y12	Z12	X13	Y13	Z13	X14	Y14	Z14	X15	Y15	Z15	X16	Y16	Z16	X17	Y17	Z17	X18	Y18	Z18	X19	Y19	Z19	X20	Y20	Z20	X21	Y21	Z21	X22	Y22	Z22	X23	Y23	Z23	X24	Y24	Z24	X25	Y25	Z25	X26	Y26	Z26	X27	Y27	Z27	X28	Y28	Z28	X29	Y29	Z29	X30	Y30	Z30	X31	Y31	Z31	X32	Y32	Z32	X33	Y33	Z33	

18	0.613928571429	687.073847430569	1005.839032129345	425.226937929490	911.524931679073	1436.972601944759	284.773260905949	974.751863786072	1360.052626811580	461.234653639329	859.197153521723	1431.633010033135	616.666694886577	865.264017274676	1494.352094737051	439.097592360185	898.802207320024	946.287918181193	575.991101764167	922.075036606925	958.266824689709	302.284324988789	973.085534185506	764.991138799128	550.183850427169	920.101267226829	646.833162661151	618.151258383367	1007.050229663879	603.490380313189	540.282149477067	1033.449663239274	512.909441407230	562.130164593622	941.997365939873	732.268108639757	341.859607791617	843.713102666722	622.048689138068	281.721133600003	910.692062182137	539.724319224824	356.095489271603	901.552148385981	469.996477624012	368.308307550880	863.591847986808	401.701673469238	361.359643749701	761.994756839364	298.266337183830	310.113526976763	788.931492391083	185.140750531009	389.180725245117	997.461077045331	425.813486596710	573.877384260813	917.504555730766	328.397376876023	636.819845792000	968.151391768693	228.309967491961	589.988757758198	839.154577700410	58.809248179569	561.234761433179	1009.614641135739	113.219342291657	609.538498145986	919.668366901590	47.267104677091	638.644852517045	1125.942981291077	60.421216078807	639.708143970227	641.724922922883	39.575889686041	431.001737041633	716.701168539642	35.934551085664	352.046168218745	801.608481389760	94.958532888337	379.936820357416	928.968102456438	39.389515983808	352.060274970173	1009.913098272408	1123.837618152348	128.050344590280	1255.718470027853	1040.481135593319	153.209174000750	695.828181508134	1118.628784714859	698.240904059011	669.012933312140	859.925944612180	719.107398870115	
19	0.633571428571	686.694680778613	1005.705273754707	426.095510035803	913.607500422801	1436.284410105033	288.140113032514	974.761951639132	1359.340704513778	465.265952436533	857.719101739564	1431.386669747579	619.425666909741	865.741937074811	1493.817222291270	441.960604895143	896.595491790568	945.539139484548	579.434782742469	922.810167646645	957.574384155240	305.856615321130	969.551283638470	763.265959642483	555.276739001688	914.001826976272	645.243454671977	621.876006560297	1002.117835572737	601.902450597565	545.494137391916	1028.042748788605	513.237220240419	566.174080436345	939.595836097775	731.017180192077	344.996094461283	840.399789031667	622.123735096645	283.055487316643	905.528987688445	538.858346817315	357.581485400850	895.325746232269	469.444420830742	369.467240910721	857.744055641635	401.479870467757	362.139584449658	756.163558091373	298.184815311070	310.464100912939	782.913130836232	184.939891328996	389.449192420984	995.698252908666	425.508483895639	577.220066420854	919.848869088597	324.381724519543	639.973760623597	974.686190149427	226.544511406492	592.508188036804	852.332388357675	52.527877565932	563.607304361913	1021.372564498027	112.258069809738	610.953154301698	933.794572034093	43.121109159253	640.394348264937	1139.805214963777	63.182725099363	639.959388079449	635.724642785621	39.320174624292	430.977173362795	710.693677013824	35.791981103002	352.002197246650	795.550206289837	94.879267710396	380.013436888007	922.967145261653	39.409021434234	352.137859885389	1014.414433395218	1124.771933664198	130.764117167397	1262.951990334953	1051.874889301745	157.402958164308	690.836408864402	1120.355917893528	699.012501742537	662.716385316484	861.644985526116	720.036328398639	
20	0.653214285714	686.592799384704	1005.120076358754	427.411188237546	915.371709476094	1435.268285270636	291.780787758129	974.781984233228	1358.386065555397	469.471293630426	856.417971770837	1430.779666754828	622.518194446865	866.143353860865	1492.967277922010	445.139507477296	894.795838728284	944.366526804508	583.112850141265	923.767528366797	956.636607735332	309.666998621849	966.589712308145	761.250550032045	560.414322056331	908.481654342674	643.231258627176	625.337503435979	997.908815098247	600.085587432663	550.482055434017	1023.049962845074	512.893469610547	569.899030786786	937.766570052396	729.641665175465	348.287880154053	837.729299376056	621.970187225363	284.649936245066	901.143420181870	537.837012252117	359.283495042502	889.940478727315	468.656291903381	370.833684091582	852.541458491116	401.004236314346	363.125533206562	750.735809340235	298.077584968732	310.975889800558	777.092705011131	184.619952973206	389.790670839779	993.707494975442	424.636839488320	580.232449323159	921.063957146798	320.653157979387	642.483259604693	979.214707331328	224.783169105580	594.477385616299	862.136137194008	47.882358440861	565.078874059524	1029.943225407668	111.218347522493	611.762647541650	944.121884767229	40.084997720677	641.488987195592	1149.746941331154	64.859225857818	640.039583150646	629.723451116506	39.073093776594	430.962198903757	704.691302471719	35.657894160731	351.967590621319	789.491716694535	94.795876358831	380.114797493075	916.963238960660	39.413649843722	352.209954828387	1018.299787333581	1125.054884797277	133.989560454579	1269.041865580600	1062.146395090139	161.743198952372	687.415648991830	1120.931205205287	700.159959670041	658.893759053316	862.062019975063	721.203851291023	
21	0.672857142857	686.798011347902	1004.186062544517	429.183230215165	916.823974663669	1434.043740733399	295.699116090047	974.820342553839	1357.304271977705	473.863496540409	855.283727903206	1429.911744598306	625.958607331359	866.452306729253	1491.902248209384	448.647455124543	893.475648255427	942.894730079329	587.003939839833	924.968214279404	955.555595128673	313.691561863029	964.336699175332	759.102871556586	565.442374982353	903.781922741222	640.962305025198	628.466181132418	994.576283169130	598.181079022388	555.097462709852	1018.681435280040	511.982091731614	573.212897460028	936.520003954533	728.188896281723	351.690122063726	835.651378794438	621.649520371282	286.516473815530	897.500477635464	536.702593627401	361.195134637059	885.369080859968	467.671223007404	372.406438867369	847.941612587213	400.330809778757	364.316046180195	745.667927086841	298.000428283043	311.659432979217	771.458414112121	184.227480433219	390.201038434949	991.647787304471	423.267840424990	582.860266409383	921.254310429404	317.244110574736	644.379538386171	981.782206334875	222.960854242190	595.886954046230	868.431368180050	44.665272708446	565.734771294652	1035.308183611507	109.996059803683	611.987351730337	950.579833428427	38.009660563812	642.020950378404	1155.850938062019	65.361364437135	639.996461940217	623.726510105930	38.871144257632	430.951311582013	698.700842497303	35.550790564364	351.944542631605	783.446391646607	94.723993022746	380.231567756967	910.962828811329	39.396985994810	352.269941046490	1021.497861466296	1124.748484699430	137.745950228931	1273.976137905486	1071.229442613858	166.225151565999	685.474086286421	1120.467414089791	701.753797577847	657.407306583520	861.319207038746	722.703955938385	
